# xmcd CD database file
#
# Track frame offsets:
#	150
#	27204
#	69468
#	108147
#	147042
#	168238
#	190875
#	222141
#	256303
#	264899
#	295878
#
# Disc length: 4773 seconds
#
# Revision: 0
# Processed by: cddbd v1.5.2PL0 Copyright (c) Steve Scherf et al.
# Submitted via: CDex 1.51
#
DISCID=9512a30b
DTITLE=Vince Vallicelli Band - Jazz In Blue IV Edizione
DYEAR=2003
DGENRE=Jazz
TTITLE0=Blues
TTITLE1=Watermelon Man
TTITLE2=Night Train
TTITLE3=Fiver
TTITLE4=Crazy About That Girl
TTITLE5=Giorga On My Mind
TTITLE6=I Got The Feeling
TTITLE7=Are Are Ah!
TTITLE8=Amazing Graze (Intro)
TTITLE9=Amazin Grace
TTITLE10=Mojo Working
EXTD=YEAR: 2003
EXTT0=
EXTT1=
EXTT2=
EXTT3=
EXTT4=
EXTT5=
EXTT6=
EXTT7=
EXTT8=
EXTT9=
EXTT10=
PLAYORDER=
